<svg width="1600" height="900" viewBox="0 0 1600 900" fill="none" xmlns="http://www.w3.org/2000/svg">
  <defs>
    <linearGradient id="bg" x1="0" y1="0" x2="1600" y2="900" gradientUnits="userSpaceOnUse">
      <stop stop-color="#0E1B2A"/>
      <stop offset="0.5" stop-color="#16283B"/>
      <stop offset="1" stop-color="#0A1220"/>
    </linearGradient>
    <linearGradient id="accent" x1="320" y1="160" x2="1360" y2="760" gradientUnits="userSpaceOnUse">
      <stop stop-color="#7DD3FC" stop-opacity="0.95"/>
      <stop offset="1" stop-color="#A78BFA" stop-opacity="0.9"/>
    </linearGradient>
    <filter id="blur" x="0" y="0" width="1600" height="900" filterUnits="userSpaceOnUse">
      <feGaussianBlur stdDeviation="28"/>
    </filter>
  </defs>
  <rect width="1600" height="900" fill="url(#bg)"/>
  <circle cx="300" cy="180" r="180" fill="#38BDF8" fill-opacity="0.18" filter="url(#blur)"/>
  <circle cx="1320" cy="760" r="220" fill="#A78BFA" fill-opacity="0.16" filter="url(#blur)"/>
  <circle cx="1220" cy="220" r="120" fill="#22C55E" fill-opacity="0.12" filter="url(#blur)"/>

  <rect x="110" y="110" width="1380" height="680" rx="42" fill="#0E1726" fill-opacity="0.78" stroke="#2B3C57" stroke-opacity="0.8"/>
  <rect x="150" y="150" width="540" height="600" rx="32" fill="#101B2D" stroke="#31455F" stroke-opacity="0.9"/>
  <rect x="730" y="150" width="720" height="600" rx="32" fill="#0C1422" stroke="#31455F" stroke-opacity="0.9"/>

  <path d="M190 220H640" stroke="url(#accent)" stroke-width="6" stroke-linecap="round"/>
  <text x="190" y="300" fill="#F8FAFC" font-size="72" font-family="Arial, Helvetica, sans-serif" font-weight="700">ChapterLoom</text>
  <text x="190" y="352" fill="#C7D2FE" font-size="28" font-family="Arial, Helvetica, sans-serif">AI 写作 · 章节管理 · 本地优先 · 双模型切换</text>

  <g>
    <rect x="190" y="420" width="150" height="44" rx="22" fill="#1E293B"/>
    <text x="228" y="449" fill="#E2E8F0" font-size="20" font-family="Arial, Helvetica, sans-serif">自动保存</text>
    <rect x="354" y="420" width="150" height="44" rx="22" fill="#1E293B"/>
    <text x="392" y="449" fill="#E2E8F0" font-size="20" font-family="Arial, Helvetica, sans-serif">章节搜索</text>
    <rect x="190" y="478" width="180" height="44" rx="22" fill="#1E293B"/>
    <text x="228" y="507" fill="#E2E8F0" font-size="20" font-family="Arial, Helvetica, sans-serif">人物与设定卡</text>
    <rect x="384" y="478" width="178" height="44" rx="22" fill="#1E293B"/>
    <text x="422" y="507" fill="#E2E8F0" font-size="20" font-family="Arial, Helvetica, sans-serif">Ollama / OpenAI</text>
  </g>

  <text x="770" y="220" fill="#93C5FD" font-size="22" font-family="Arial, Helvetica, sans-serif" letter-spacing="2">WRITING WORKSPACE</text>
  <text x="770" y="282" fill="#F8FAFC" font-size="58" font-family="Arial, Helvetica, sans-serif" font-weight="700">面向长篇创作的 AI 编辑器</text>
  <text x="770" y="338" fill="#CBD5E1" font-size="28" font-family="Arial, Helvetica, sans-serif">章节、上下文、角色卡、摘要与版本历史统一管理</text>

  <rect x="770" y="410" width="620" height="270" rx="24" fill="#111C2D" stroke="#30435D" stroke-opacity="0.9"/>
  <rect x="800" y="446" width="560" height="18" rx="9" fill="#1F2A3D"/>
  <rect x="800" y="486" width="390" height="18" rx="9" fill="#273547"/>
  <rect x="800" y="526" width="470" height="18" rx="9" fill="#273547"/>
  <rect x="800" y="566" width="332" height="18" rx="9" fill="#273547"/>
  <rect x="800" y="628" width="180" height="54" rx="18" fill="url(#accent)"/>
  <text x="848" y="663" fill="#08111E" font-size="22" font-family="Arial, Helvetica, sans-serif" font-weight="700">开始写作</text>
  <rect x="998" y="628" width="220" height="54" rx="18" fill="#1E293B"/>
  <text x="1050" y="663" fill="#E2E8F0" font-size="22" font-family="Arial, Helvetica, sans-serif">AI 读取当前章</text>

  <text x="110" y="850" fill="#64748B" font-size="20" font-family="Arial, Helvetica, sans-serif">ChapterLoom · long-form writing workspace</text>
</svg>